<?xml version="1.0" encoding="UTF-8"?>
<svg version="1.1" xmlns="http://www.w3.org/2000/svg" width="214" height="256">
<path d="M0 0 C5.28 0 10.56 0 16 0 C16 2.64 16 5.28 16 8 C17.2375 8.061875 18.475 8.12375 19.75 8.1875 C33.40902281 9.75281973 46.46448672 18.4420157 55 29 C63.15625058 40.8310448 67.89739469 53.4173363 67 68 C71.95 68 76.9 68 82 68 C82 73.28 82 78.56 82 84 C77.05 84 72.1 84 67 84 C67 90.6 67 97.2 67 104 C69.10375 103.9175 71.2075 103.835 73.375 103.75 C82.55816147 103.76853312 89.68985692 105.96644441 96.46484375 112.29296875 C100.59687712 116.88762164 102.7845057 120.92252852 104 127 C107.63 127 111.26 127 115 127 C115 132.28 115 137.56 115 143 C111.37 143 107.74 143 104 143 C103.95875 143.825 103.9175 144.65 103.875 145.5 C102.02433413 152.90266347 96.15351593 158.70996711 90 163 C84.25481096 166.14939699 78.67716487 167.14068873 72.1875 167.0625 C71.21167969 167.05347656 70.23585937 167.04445312 69.23046875 167.03515625 C68.12638672 167.01775391 68.12638672 167.01775391 67 167 C66.8881883 174.37974658 66.856912 181.75689954 66.87792969 189.13745117 C66.87599997 191.64045888 66.85658137 194.14352363 66.81835938 196.64624023 C66.57706427 213.4128988 68.01656804 224.39334705 78 238 C78 238.66 78 239.32 78 240 C84.27 240 90.54 240 97 240 C97 245.28 97 250.56 97 256 C38.26 256 -20.48 256 -81 256 C-81 250.72 -81 245.44 -81 240 C-79.74445313 240.12503906 -78.48890625 240.25007812 -77.1953125 240.37890625 C-75.50537812 240.44462592 -73.81525324 240.50556782 -72.125 240.5625 C-71.30257812 240.65724609 -70.48015625 240.75199219 -69.6328125 240.84960938 C-65.92121016 240.89310471 -63.39103977 240.27295773 -60.59613037 237.71530151 C-49.43584227 225.12995407 -50.63816703 209.24916329 -50.875 193.4375 C-50.87694586 190.86523379 -50.87437577 188.29296002 -50.8671875 185.72070312 C-50.85943516 179.47942602 -50.90726719 173.24055155 -51 167 C-51.73387939 167.01305176 -52.46775879 167.02610352 -53.22387695 167.03955078 C-54.68506958 167.05477783 -54.68506958 167.05477783 -56.17578125 167.0703125 C-57.13653564 167.08336426 -58.09729004 167.09641602 -59.0871582 167.10986328 C-67.33977334 166.79860045 -74.06383034 163.65592131 -80 158 C-84.24535317 153.35841387 -86.71685974 149.15907326 -88 143 C-91.3 143 -94.6 143 -98 143 C-98 137.72 -98 132.44 -98 127 C-96.453125 127.04125 -94.90625 127.0825 -93.3125 127.125 C-90.52867436 126.96671665 -90.52867436 126.96671665 -88 126 C-86.24849095 123.65869709 -85.29952476 121.34324243 -84.1953125 118.640625 C-81.07316208 111.74332538 -74.89815726 107.64547887 -68 105 C-62.57603228 103.21533965 -56.62255616 103.94377444 -51 104 C-51 97.4 -51 90.8 -51 84 C-55.62 84 -60.24 84 -65 84 C-65 78.72 -65 73.44 -65 68 C-60.38 68 -55.76 68 -51 68 C-50.938125 65.999375 -50.87625 63.99875 -50.8125 61.9375 C-49.60422744 45.95608165 -43.29509886 32.52676938 -31.5625 21.5625 C-22.80607842 14.3664788 -11.73558871 7.4442162 0 8 C0 5.36 0 2.72 0 0 Z " fill="#E00F59" transform="translate(98,0)"/>
<path d="M0 0 C1.28018005 -0.00249756 2.56036011 -0.00499512 3.8793335 -0.00756836 C7.48338637 -0.01338125 11.08735276 -0.01202023 14.69140625 -0.0078125 C16.31069283 -0.01078842 16.31069283 -0.01078842 17.96269226 -0.01382446 C19.42664177 -0.00915665 19.42664177 -0.00915665 20.92016602 -0.00439453 C21.77336929 -0.00359894 22.62657257 -0.00280334 23.50563049 -0.00198364 C25.4375 0.125 25.4375 0.125 26.4375 1.125 C26.47402135 3.59086055 26.4532793 6.03557131 26.40234375 8.5 C26.05056492 32.99509558 26.05056492 32.99509558 37.4375 54.125 C37.4375 54.785 37.4375 55.445 37.4375 56.125 C43.7075 56.125 49.9775 56.125 56.4375 56.125 C56.4375 61.405 56.4375 66.685 56.4375 72.125 C-1.9725 72.125 -60.3825 72.125 -120.5625 72.125 C-120.5625 67.175 -120.5625 62.225 -120.5625 57.125 C-91.5225 57.125 -62.4825 57.125 -32.5625 57.125 C-32.5625 50.525 -32.5625 43.925 -32.5625 37.125 C-51.7025 37.125 -70.8425 37.125 -90.5625 37.125 C-90.5625 25.245 -90.5625 13.365 -90.5625 1.125 C-60.37335995 0.50482691 -30.19546828 0.02095089 0 0 Z " fill="#B4144A" transform="translate(138.5625,183.875)"/>
<path d="M0 0 C24.09 0 48.18 0 73 0 C73 5.94 73 11.88 73 18 C71.411875 18.20625 69.82375 18.4125 68.1875 18.625 C59.08548637 20.31185967 51.26844779 24.4058521 45.50390625 31.75390625 C38.99857361 41.46966279 37.53221969 50.27753504 39.4765625 61.83203125 C41.72862451 70.66391301 47.43295302 77.97022715 55 83 C60.8712791 86.00770926 66.44424694 87.51438866 73 88 C73 92.62 73 97.24 73 102 C53.86 102 34.72 102 15 102 C15 113.88 15 125.76 15 138 C34.14 138 53.28 138 73 138 C73 144.6 73 151.2 73 158 C43.96 158 14.92 158 -15 158 C-15 162.95 -15 167.9 -15 173 C-15.33 173 -15.66 173 -16 173 C-16 167.72 -16 162.44 -16 157 C-14.74445312 157.12503906 -13.48890625 157.25007812 -12.1953125 157.37890625 C-10.50537812 157.44462592 -8.81525324 157.50556782 -7.125 157.5625 C-6.30257813 157.65724609 -5.48015625 157.75199219 -4.6328125 157.84960938 C-0.92121016 157.89310471 1.60896023 157.27295773 4.40386963 154.71530151 C15.56415773 142.12995407 14.36183297 126.24916329 14.125 110.4375 C14.12305414 107.86523379 14.12562423 105.29296002 14.1328125 102.72070312 C14.14056484 96.47942602 14.09273281 90.24055155 14 84 C13.26612061 84.01305176 12.53224121 84.02610352 11.77612305 84.03955078 C10.80199463 84.04970215 9.82786621 84.05985352 8.82421875 84.0703125 C7.38308716 84.08989014 7.38308716 84.08989014 5.9128418 84.10986328 C-2.33977334 83.79860045 -9.06383034 80.65592131 -15 75 C-19.24535317 70.35841387 -21.71685974 66.15907326 -23 60 C-26.3 60 -29.6 60 -33 60 C-33 54.72 -33 49.44 -33 44 C-30.6796875 44.061875 -30.6796875 44.061875 -28.3125 44.125 C-25.52867436 43.96671665 -25.52867436 43.96671665 -23 43 C-21.24849095 40.65869709 -20.29952476 38.34324243 -19.1953125 35.640625 C-16.07316208 28.74332538 -9.89815726 24.64547887 -3 22 C2.42396772 20.21533965 8.37744384 20.94377444 14 21 C14 14.4 14 7.8 14 1 C9.38 1 4.76 1 0 1 C0 0.67 0 0.34 0 0 Z " fill="#E8455F" transform="translate(33,83)"/>
<path d="M0 0 C5.28 0 10.56 0 16 0 C16 2.64 16 5.28 16 8 C17.2375 8.061875 18.475 8.12375 19.75 8.1875 C33.40902281 9.75281973 46.46448672 18.4420157 55 29 C63.15625058 40.8310448 67.89739469 53.4173363 67 68 C71.95 68 76.9 68 82 68 C82 73.28 82 78.56 82 84 C81.67 84 81.34 84 81 84 C81 79.05 81 74.1 81 69 C32.82 69 -15.36 69 -65 69 C-65 68.67 -65 68.34 -65 68 C-60.38 68 -55.76 68 -51 68 C-50.9071875 64.9990625 -50.9071875 64.9990625 -50.8125 61.9375 C-49.60422744 45.95608165 -43.29509886 32.52676938 -31.5625 21.5625 C-22.80607842 14.3664788 -11.73558871 7.4442162 0 8 C0 5.36 0 2.72 0 0 Z " fill="#E84762" transform="translate(98,0)"/>
<path d="M0 0 C2.31 0 4.62 0 7 0 C7 2.64 7 5.28 7 8 C8.2375 8.061875 9.475 8.12375 10.75 8.1875 C24.40902281 9.75281973 37.46448672 18.4420157 46 29 C54.52145167 41.36078704 58 52.83131908 58 68 C38.86 68 19.72 68 0 68 C0 45.56 0 23.12 0 0 Z " fill="#E1115B" transform="translate(107,0)"/>
<path d="M0 0 C0 20.13 0 40.26 0 61 C-21.37137331 61 -21.37137331 61 -29.2734375 53.98046875 C-34.05016096 49.05716713 -36.31897303 44.61904371 -38 38 C-41.3 38 -44.6 38 -48 38 C-48 32.72 -48 27.44 -48 22 C-45.6796875 22.061875 -45.6796875 22.061875 -43.3125 22.125 C-40.52867436 21.96671665 -40.52867436 21.96671665 -38 21 C-36.24849095 18.65869709 -35.29952476 16.34324243 -34.1953125 13.640625 C-27.85729956 -0.36099837 -13.91302289 0 0 0 Z " fill="#E1145D" transform="translate(48,105)"/>
<path d="M0 0 C19.75409836 0 19.75409836 0 25 4 C26.051875 4.7425 27.10375 5.485 28.1875 6.25 C33.06459347 11.01871361 35.65874107 15.29370533 37 22 C40.63 22 44.26 22 48 22 C48 27.28 48 32.56 48 38 C44.37 38 40.74 38 37 38 C36.95875 38.825 36.9175 39.65 36.875 40.5 C35.05660761 47.77356957 29.18841682 53.91057836 23 58 C16 61 16 61 0 61 C0 40.87 0 20.74 0 0 Z " fill="#B41A4E" transform="translate(165,105)"/>
<path d="M0 0 C48.18 0 96.36 0 146 0 C146 4.95 146 9.9 146 15 C135.35417266 15.03047962 124.70836443 15.05125531 114.0625 15.0625 C113.25795002 15.06335602 112.45340004 15.06421204 111.62446976 15.06509399 C85.05850508 15.0899829 58.50052417 14.89213934 31.9375 14.5 C31.12706867 14.48804218 30.31663734 14.47608437 29.48164749 14.46376419 C19.65428327 14.31797162 9.82709827 14.16275333 0 14 C0 9.38 0 4.76 0 0 Z " fill="#B4144A" transform="translate(33,69)"/>
<path d="M0 0 C19.14 0 38.28 0 58 0 C58 11.88 58 23.76 58 36 C38.86 36 19.72 36 0 36 C0 24.12 0 12.24 0 0 Z " fill="#E10E59" transform="translate(48,185)"/>
<path d="M0 0 C0 8.91 0 17.82 0 27 C2.475 27.99 2.475 27.99 5 29 C7.17055665 31.17055665 7.90779699 32.47312566 8.4375 35.5 C7.85386541 38.83505482 6.64365659 39.94382265 4 42 C2.02 42.495 2.02 42.495 0 43 C0 51.91 0 60.82 0 70 C-11.35942989 70 -17.60831532 67.26595129 -25.80078125 59.43359375 C-33.23678566 51.20511996 -35.68656731 41.71870033 -35.5 30.76953125 C-34.2012485 20.97816253 -28.95221986 12.67756269 -21.27734375 6.55078125 C-14.15894688 1.70343381 -8.77458521 0 0 0 Z " fill="#E10E59" transform="translate(106,101)"/>
<path d="M0 0 C11.01094245 0 17.91534351 2.98099818 25.8359375 10.625 C28.75636934 13.83009487 31.09932716 17.10362067 33 21 C33.54140625 22.08861328 33.54140625 22.08861328 34.09375 23.19921875 C36.88882137 31.837435 36.26218368 42.65771751 32.3125 50.75 C31.2561947 52.52929849 30.1573881 54.28473418 29 56 C28.42572266 56.91652344 28.42572266 56.91652344 27.83984375 57.8515625 C23.21884872 64.31101792 14.62677613 68.56098564 7 70 C4.69 70 2.38 70 0 70 C0 61.09 0 52.18 0 43 C1.98 42.34 3.96 41.68 6 41 C6.88505693 37.01284083 6.88505693 37.01284083 7 33 C4.84245739 30.25933776 3.11206995 28.55603498 0 27 C0 18.09 0 9.18 0 0 Z " fill="#B3134A" transform="translate(106,101)"/>
<path d="M0 0 C3.96 0 7.92 0 12 0 C12 18.15 12 36.3 12 55 C31.14 55 50.28 55 70 55 C70 61.6 70 68.2 70 75 C40.96 75 11.92 75 -18 75 C-18 79.95 -18 84.9 -18 90 C-18.33 90 -18.66 90 -19 90 C-19 84.72 -19 79.44 -19 74 C-17.74445312 74.12503906 -16.48890625 74.25007813 -15.1953125 74.37890625 C-13.50537812 74.44462592 -11.81525324 74.50556782 -10.125 74.5625 C-9.30257813 74.65724609 -8.48015625 74.75199219 -7.6328125 74.84960938 C-3.92121016 74.89310471 -1.39103977 74.27295773 1.40386963 71.71530151 C12.56415773 59.12995407 11.36183297 43.24916329 11.125 27.4375 C11.12305414 24.86523379 11.12562423 22.29296002 11.1328125 19.72070312 C11.14056517 13.47916155 11.08735673 7.24090527 11 1 C7.37 1 3.74 1 0 1 C0 0.67 0 0.34 0 0 Z " fill="#EA5169" transform="translate(36,166)"/>
<path d="M0 0 C7.64908054 -0.38577061 15.29449227 -0.69682706 22.95096397 -0.88080692 C26.5079588 -0.96917993 30.05790628 -1.08864631 33.61083984 -1.2824707 C56.58946353 -2.50470594 56.58946353 -2.50470594 62.30285645 1.69122314 C66.33854203 6.28687848 70 12.71666708 70 19 C76.27 19 82.54 19 89 19 C89 19.33 89 19.66 89 20 C59.63 20 30.26 20 0 20 C0 13.4 0 6.8 0 0 Z " fill="#E1135C" transform="translate(106,221)"/>
<path d="M0 0 C29.04 0 58.08 0 88 0 C88 4.95 88 9.9 88 15 C58.96 15 29.92 15 0 15 C0 10.05 0 5.1 0 0 Z " fill="#E10E59" transform="translate(18,241)"/>
<path d="M0 0 C24.09 0 48.18 0 73 0 C73 4.62 73 9.24 73 14 C48.91 14 24.82 14 0 14 C0 9.38 0 4.76 0 0 Z " fill="#E10E59" transform="translate(33,69)"/>
<path d="M0 0 C0 4.62 0 9.24 0 14 C-1.65 13.67 -3.3 13.34 -5 13 C-7.32749345 9.50875983 -7.50299316 8.10777749 -7 4 C-4.65790677 0.93105025 -3.92712226 0 0 0 Z " fill="#E8445E" transform="translate(106,129)"/>
<path d="M0 0 C0.66 0.33 1.32 0.66 2 1 C-1.63 4.63 -5.26 8.26 -9 12 C-9.66 11.67 -10.32 11.34 -11 11 C-9.92173635 9.72486237 -8.83714481 8.45507431 -7.75 7.1875 C-7.14671875 6.47980469 -6.5434375 5.77210937 -5.921875 5.04296875 C-4.07629602 3.08110329 -2.20054668 1.54330375 0 0 Z " fill="#F294A2" transform="translate(71,18)"/>
</svg>
